<svg width="172" height="40" viewBox="0 0 172 40" fill="none" xmlns="http://www.w3.org/2000/svg">
<path d="M0 16C0 7.16344 7.16344 0 16 0H156C164.837 0 172 7.16344 172 16V24C172 32.8366 164.837 40 156 40H16C7.16344 40 0 32.8366 0 24V16Z" fill="#DB3A50"/>
<path d="M33.68 14.8H35.28V26H33.68V14.8ZM48.2651 14.8V26H46.9531L40.2331 17.648V26H38.6331V14.8H39.9451L46.6651 23.152V14.8H48.2651ZM54.8815 26.128C54.0388 26.128 53.2228 26 52.4335 25.744C51.6548 25.4773 51.0415 25.136 50.5935 24.72L51.1855 23.472C51.6122 23.856 52.1562 24.1707 52.8175 24.416C53.4895 24.6507 54.1775 24.768 54.8815 24.768C55.8095 24.768 56.5028 24.6133 56.9615 24.304C57.4202 23.984 57.6495 23.5627 57.6495 23.04C57.6495 22.656 57.5215 22.3467 57.2655 22.112C57.0202 21.8667 56.7108 21.68 56.3375 21.552C55.9748 21.424 55.4575 21.28 54.7855 21.12C53.9428 20.9173 53.2602 20.7147 52.7375 20.512C52.2255 20.3093 51.7828 20 51.4095 19.584C51.0468 19.1573 50.8655 18.5867 50.8655 17.872C50.8655 17.2747 51.0202 16.736 51.3295 16.256C51.6495 15.776 52.1295 15.392 52.7695 15.104C53.4095 14.816 54.2042 14.672 55.1535 14.672C55.8148 14.672 56.4655 14.7573 57.1055 14.928C57.7455 15.0987 58.2948 15.344 58.7535 15.664L58.2255 16.944C57.7562 16.6453 57.2548 16.4213 56.7215 16.272C56.1882 16.112 55.6655 16.032 55.1535 16.032C54.2468 16.032 53.5642 16.1973 53.1055 16.528C52.6575 16.8587 52.4335 17.2853 52.4335 17.808C52.4335 18.192 52.5615 18.5067 52.8175 18.752C53.0735 18.9867 53.3882 19.1733 53.7615 19.312C54.1455 19.44 54.6628 19.5787 55.3135 19.728C56.1562 19.9307 56.8335 20.1333 57.3455 20.336C57.8575 20.5387 58.2948 20.848 58.6575 21.264C59.0308 21.68 59.2175 22.24 59.2175 22.944C59.2175 23.5307 59.0575 24.0693 58.7375 24.56C58.4175 25.04 57.9322 25.424 57.2815 25.712C56.6308 25.9893 55.8308 26.128 54.8815 26.128ZM66.563 26.128C65.443 26.128 64.4297 25.8827 63.523 25.392C62.627 24.8907 61.923 24.208 61.411 23.344C60.899 22.4693 60.643 21.488 60.643 20.4C60.643 19.312 60.899 18.336 61.411 17.472C61.923 16.5973 62.6323 15.9147 63.539 15.424C64.4457 14.9227 65.459 14.672 66.579 14.672C67.4537 14.672 68.2537 14.8213 68.979 15.12C69.7043 15.408 70.323 15.84 70.835 16.416L69.795 17.424C68.9523 16.5387 67.9017 16.096 66.643 16.096C65.811 16.096 65.059 16.2827 64.387 16.656C63.715 17.0293 63.187 17.5467 62.803 18.208C62.4297 18.8587 62.243 19.5893 62.243 20.4C62.243 21.2107 62.4297 21.9467 62.803 22.608C63.187 23.2587 63.715 23.7707 64.387 24.144C65.059 24.5173 65.811 24.704 66.643 24.704C67.891 24.704 68.9417 24.256 69.795 23.36L70.835 24.368C70.323 24.944 69.699 25.3813 68.963 25.68C68.2377 25.9787 67.4377 26.128 66.563 26.128ZM80.6055 26L78.1895 22.56C77.8908 22.5813 77.6562 22.592 77.4855 22.592H74.7175V26H73.1175V14.8H77.4855C78.9362 14.8 80.0775 15.1467 80.9095 15.84C81.7415 16.5333 82.1575 17.488 82.1575 18.704C82.1575 19.568 81.9442 20.304 81.5175 20.912C81.0908 21.52 80.4828 21.9627 79.6935 22.24L82.3495 26H80.6055ZM77.4375 21.232C78.4508 21.232 79.2242 21.0133 79.7575 20.576C80.2908 20.1387 80.5575 19.5147 80.5575 18.704C80.5575 17.8933 80.2908 17.2747 79.7575 16.848C79.2242 16.4107 78.4508 16.192 77.4375 16.192H74.7175V21.232H77.4375ZM92.8705 24.608V26H84.7425V14.8H92.6465V16.192H86.3425V19.632H91.9585V20.992H86.3425V24.608H92.8705ZM105.033 14.8L100.121 26H98.537L93.609 14.8H95.337L99.369 24L103.433 14.8H105.033ZM114.589 24.608V26H106.461V14.8H114.365V16.192H108.061V19.632H113.677V20.992H108.061V24.608H114.589ZM116.1 20.944H120.404V22.272H116.1V20.944ZM124.685 16.192H120.845V14.8H130.109V16.192H126.269V26H124.685V16.192ZM139.98 24.608V26H131.852V14.8H139.756V16.192H133.452V19.632H139.068V20.992H133.452V24.608H139.98Z" fill="#FCFBE9"/>
</svg>
