<svg width="107" height="79" viewBox="0 0 107 79" fill="none" xmlns="http://www.w3.org/2000/svg">
<path d="M105.787 0.00069472C105.403 0.00069472 105.094 0.230775 105.094 0.514377V77.6758H101.105L80.1984 0.414281C80.1326 0.173081 79.8495 0 79.5157 0H74.2604C73.9284 0 73.6435 0.173081 73.5776 0.414281L52.6725 77.6758H48.6832V0.514377C48.6832 0.230775 48.3709 0.00069472 47.9872 0.00069472H0.694048C0.310346 0.00069472 0 0.230775 0 0.514377V78.1879C0 78.4713 0.310346 78.7022 0.694048 78.7022H47.9768C47.9806 78.7022 47.9825 78.7037 47.9863 78.7037H53.2415C53.5744 78.7037 53.8565 78.5307 53.9233 78.29L74.8304 1.02805H78.9448L99.8509 78.29C99.9148 78.5307 100.2 78.7037 100.531 78.7037H105.786C106.17 78.7037 106.481 78.4728 106.481 78.1894V0.514377C106.483 0.230775 106.171 0.00069472 105.787 0.00069472Z" fill="black"/>
</svg>
