<svg width="153" height="19" viewBox="0 0 153 19" fill="none" xmlns="http://www.w3.org/2000/svg">
<path d="M0 9.5C0 4.25329 4.2533 0 9.5 0H143.5C148.747 0 153 4.25329 153 9.5C153 14.7467 148.747 19 143.5 19H9.5C4.2533 19 0 14.7467 0 9.5Z" fill="#DB3A50"/>
<path d="M14.434 12.576C14.23 12.816 13.993 12.999 13.723 13.125C13.453 13.251 13.162 13.314 12.85 13.314C12.454 13.314 12.082 13.218 11.734 13.026C11.392 12.84 10.999 12.519 10.555 12.063C9.961 12.033 9.424 11.874 8.944 11.586C8.47 11.298 8.098 10.917 7.828 10.443C7.564 9.963 7.432 9.432 7.432 8.85C7.432 8.244 7.576 7.695 7.864 7.203C8.158 6.711 8.56 6.327 9.07 6.051C9.58 5.769 10.153 5.628 10.789 5.628C11.419 5.628 11.989 5.769 12.499 6.051C13.009 6.327 13.408 6.711 13.696 7.203C13.984 7.689 14.128 8.238 14.128 8.85C14.128 9.366 14.023 9.84 13.813 10.272C13.609 10.704 13.318 11.067 12.94 11.361C12.568 11.655 12.139 11.859 11.653 11.973C11.863 12.195 12.064 12.354 12.256 12.45C12.454 12.552 12.655 12.603 12.859 12.603C13.303 12.603 13.687 12.423 14.011 12.063L14.434 12.576ZM8.332 8.85C8.332 9.306 8.437 9.72 8.647 10.092C8.863 10.458 9.157 10.746 9.529 10.956C9.907 11.166 10.327 11.271 10.789 11.271C11.245 11.271 11.659 11.166 12.031 10.956C12.403 10.746 12.694 10.458 12.904 10.092C13.12 9.72 13.228 9.306 13.228 8.85C13.228 8.394 13.12 7.983 12.904 7.617C12.694 7.245 12.403 6.954 12.031 6.744C11.659 6.534 11.245 6.429 10.789 6.429C10.327 6.429 9.907 6.534 9.529 6.744C9.157 6.954 8.863 7.245 8.647 7.617C8.437 7.983 8.332 8.394 8.332 8.85ZM19.8236 7.23V12H19.0046V11.28C18.8306 11.526 18.5996 11.718 18.3116 11.856C18.0296 11.988 17.7206 12.054 17.3846 12.054C16.7486 12.054 16.2476 11.88 15.8816 11.532C15.5156 11.178 15.3326 10.659 15.3326 9.975V7.23H16.1966V9.876C16.1966 10.338 16.3076 10.689 16.5296 10.929C16.7516 11.163 17.0696 11.28 17.4836 11.28C17.9396 11.28 18.2996 11.142 18.5636 10.866C18.8276 10.59 18.9596 10.2 18.9596 9.696V7.23H19.8236ZM25.7794 9.642C25.7794 9.708 25.7734 9.795 25.7614 9.903H21.8914C21.9454 10.323 22.1284 10.662 22.4404 10.92C22.7584 11.172 23.1514 11.298 23.6194 11.298C24.1894 11.298 24.6484 11.106 24.9964 10.722L25.4734 11.28C25.2574 11.532 24.9874 11.724 24.6634 11.856C24.3454 11.988 23.9884 12.054 23.5924 12.054C23.0884 12.054 22.6414 11.952 22.2514 11.748C21.8614 11.538 21.5584 11.247 21.3424 10.875C21.1324 10.503 21.0274 10.083 21.0274 9.615C21.0274 9.153 21.1294 8.736 21.3334 8.364C21.5434 7.992 21.8284 7.704 22.1884 7.5C22.5544 7.29 22.9654 7.185 23.4214 7.185C23.8774 7.185 24.2824 7.29 24.6364 7.5C24.9964 7.704 25.2754 7.992 25.4734 8.364C25.6774 8.736 25.7794 9.162 25.7794 9.642ZM23.4214 7.914C23.0074 7.914 22.6594 8.04 22.3774 8.292C22.1014 8.544 21.9394 8.874 21.8914 9.282H24.9514C24.9034 8.88 24.7384 8.553 24.4564 8.301C24.1804 8.043 23.8354 7.914 23.4214 7.914ZM32.0781 11.721C31.9521 11.829 31.7961 11.913 31.6101 11.973C31.4241 12.027 31.2321 12.054 31.0341 12.054C30.5541 12.054 30.1821 11.925 29.9181 11.667C29.6541 11.409 29.5221 11.04 29.5221 10.56V7.941H28.7121V7.23H29.5221V6.186H30.3861V7.23H31.7541V7.941H30.3861V10.524C30.3861 10.782 30.4491 10.98 30.5751 11.118C30.7071 11.256 30.8931 11.325 31.1331 11.325C31.3971 11.325 31.6221 11.25 31.8081 11.1L32.0781 11.721ZM33.1227 7.23H33.9867V12H33.1227V7.23ZM33.5547 6.312C33.3867 6.312 33.2457 6.258 33.1317 6.15C33.0237 6.042 32.9697 5.91 32.9697 5.754C32.9697 5.598 33.0237 5.466 33.1317 5.358C33.2457 5.244 33.3867 5.187 33.5547 5.187C33.7227 5.187 33.8607 5.241 33.9687 5.349C34.0827 5.451 34.1397 5.58 34.1397 5.736C34.1397 5.898 34.0827 6.036 33.9687 6.15C33.8607 6.258 33.7227 6.312 33.5547 6.312ZM38.1654 7.185C38.6274 7.185 39.0414 7.287 39.4074 7.491C39.7734 7.695 40.0584 7.98 40.2624 8.346C40.4724 8.712 40.5774 9.135 40.5774 9.615C40.5774 10.095 40.4724 10.521 40.2624 10.893C40.0584 11.259 39.7734 11.544 39.4074 11.748C39.0414 11.952 38.6274 12.054 38.1654 12.054C37.8234 12.054 37.5084 11.988 37.2204 11.856C36.9384 11.724 36.6984 11.532 36.5004 11.28V13.746H35.6364V7.23H36.4644V7.986C36.6564 7.722 36.8994 7.524 37.1934 7.392C37.4874 7.254 37.8114 7.185 38.1654 7.185ZM38.0934 11.298C38.3994 11.298 38.6724 11.229 38.9124 11.091C39.1584 10.947 39.3504 10.749 39.4884 10.497C39.6324 10.239 39.7044 9.945 39.7044 9.615C39.7044 9.285 39.6324 8.994 39.4884 8.742C39.3504 8.484 39.1584 8.286 38.9124 8.148C38.6724 8.01 38.3994 7.941 38.0934 7.941C37.7934 7.941 37.5204 8.013 37.2744 8.157C37.0344 8.295 36.8424 8.49 36.6984 8.742C36.5604 8.994 36.4914 9.285 36.4914 9.615C36.4914 9.945 36.5604 10.239 36.6984 10.497C36.8364 10.749 37.0284 10.947 37.2744 11.091C37.5204 11.229 37.7934 11.298 38.0934 11.298ZM43.8141 12.054C43.3401 12.054 42.9141 11.949 42.5361 11.739C42.1581 11.529 41.8611 11.241 41.6451 10.875C41.4351 10.503 41.3301 10.083 41.3301 9.615C41.3301 9.147 41.4351 8.73 41.6451 8.364C41.8611 7.992 42.1581 7.704 42.5361 7.5C42.9141 7.29 43.3401 7.185 43.8141 7.185C44.2881 7.185 44.7111 7.29 45.0831 7.5C45.4611 7.704 45.7551 7.992 45.9651 8.364C46.1811 8.73 46.2891 9.147 46.2891 9.615C46.2891 10.083 46.1811 10.503 45.9651 10.875C45.7551 11.241 45.4611 11.529 45.0831 11.739C44.7111 11.949 44.2881 12.054 43.8141 12.054ZM43.8141 11.298C44.1201 11.298 44.3931 11.229 44.6331 11.091C44.8791 10.947 45.0711 10.749 45.2091 10.497C45.3471 10.239 45.4161 9.945 45.4161 9.615C45.4161 9.285 45.3471 8.994 45.2091 8.742C45.0711 8.484 44.8791 8.286 44.6331 8.148C44.3931 8.01 44.1201 7.941 43.8141 7.941C43.5081 7.941 43.2321 8.01 42.9861 8.148C42.7461 8.286 42.5541 8.484 42.4101 8.742C42.2721 8.994 42.2031 9.285 42.2031 9.615C42.2031 9.945 42.2721 10.239 42.4101 10.497C42.5541 10.749 42.7461 10.947 42.9861 11.091C43.2321 11.229 43.5081 11.298 43.8141 11.298ZM54.401 5.322V12H53.573V11.244C53.381 11.508 53.138 11.709 52.844 11.847C52.55 11.985 52.226 12.054 51.872 12.054C51.41 12.054 50.996 11.952 50.63 11.748C50.264 11.544 49.976 11.259 49.766 10.893C49.562 10.521 49.46 10.095 49.46 9.615C49.46 9.135 49.562 8.712 49.766 8.346C49.976 7.98 50.264 7.695 50.63 7.491C50.996 7.287 51.41 7.185 51.872 7.185C52.214 7.185 52.529 7.251 52.817 7.383C53.105 7.509 53.345 7.698 53.537 7.95V5.322H54.401ZM51.944 11.298C52.244 11.298 52.517 11.229 52.763 11.091C53.009 10.947 53.201 10.749 53.339 10.497C53.477 10.239 53.546 9.945 53.546 9.615C53.546 9.285 53.477 8.994 53.339 8.742C53.201 8.484 53.009 8.286 52.763 8.148C52.517 8.01 52.244 7.941 51.944 7.941C51.638 7.941 51.362 8.01 51.116 8.148C50.876 8.286 50.684 8.484 50.54 8.742C50.402 8.994 50.333 9.285 50.333 9.615C50.333 9.945 50.402 10.239 50.54 10.497C50.684 10.749 50.876 10.947 51.116 11.091C51.362 11.229 51.638 11.298 51.944 11.298ZM60.3468 9.642C60.3468 9.708 60.3408 9.795 60.3288 9.903H56.4588C56.5128 10.323 56.6958 10.662 57.0078 10.92C57.3258 11.172 57.7188 11.298 58.1868 11.298C58.7568 11.298 59.2158 11.106 59.5638 10.722L60.0408 11.28C59.8248 11.532 59.5548 11.724 59.2308 11.856C58.9128 11.988 58.5558 12.054 58.1598 12.054C57.6558 12.054 57.2088 11.952 56.8188 11.748C56.4288 11.538 56.1258 11.247 55.9098 10.875C55.6998 10.503 55.5948 10.083 55.5948 9.615C55.5948 9.153 55.6968 8.736 55.9008 8.364C56.1108 7.992 56.3958 7.704 56.7558 7.5C57.1218 7.29 57.5328 7.185 57.9888 7.185C58.4448 7.185 58.8498 7.29 59.2038 7.5C59.5638 7.704 59.8428 7.992 60.0408 8.364C60.2448 8.736 60.3468 9.162 60.3468 9.642ZM57.9888 7.914C57.5748 7.914 57.2268 8.04 56.9448 8.292C56.6688 8.544 56.5068 8.874 56.4588 9.282H59.5188C59.4708 8.88 59.3058 8.553 59.0238 8.301C58.7478 8.043 58.4028 7.914 57.9888 7.914ZM68.2745 9.642C68.2745 9.708 68.2685 9.795 68.2565 9.903H64.3865C64.4405 10.323 64.6235 10.662 64.9355 10.92C65.2535 11.172 65.6465 11.298 66.1145 11.298C66.6845 11.298 67.1435 11.106 67.4915 10.722L67.9685 11.28C67.7525 11.532 67.4825 11.724 67.1585 11.856C66.8405 11.988 66.4835 12.054 66.0875 12.054C65.5835 12.054 65.1365 11.952 64.7465 11.748C64.3565 11.538 64.0535 11.247 63.8375 10.875C63.6275 10.503 63.5225 10.083 63.5225 9.615C63.5225 9.153 63.6245 8.736 63.8285 8.364C64.0385 7.992 64.3235 7.704 64.6835 7.5C65.0495 7.29 65.4605 7.185 65.9165 7.185C66.3725 7.185 66.7775 7.29 67.1315 7.5C67.4915 7.704 67.7705 7.992 67.9685 8.364C68.1725 8.736 68.2745 9.162 68.2745 9.642ZM65.9165 7.914C65.5025 7.914 65.1545 8.04 64.8725 8.292C64.5965 8.544 64.4345 8.874 64.3865 9.282H67.4465C67.3985 8.88 67.2335 8.553 66.9515 8.301C66.6755 8.043 66.3305 7.914 65.9165 7.914ZM70.8423 12.054C70.4523 12.054 70.0773 12.003 69.7173 11.901C69.3573 11.793 69.0753 11.658 68.8713 11.496L69.2313 10.812C69.4413 10.962 69.6963 11.082 69.9963 11.172C70.2963 11.262 70.5993 11.307 70.9053 11.307C71.6613 11.307 72.0393 11.091 72.0393 10.659C72.0393 10.515 71.9883 10.401 71.8863 10.317C71.7843 10.233 71.6553 10.173 71.4993 10.137C71.3493 10.095 71.1333 10.05 70.8513 10.002C70.4673 9.942 70.1523 9.873 69.9063 9.795C69.6663 9.717 69.4593 9.585 69.2853 9.399C69.1113 9.213 69.0243 8.952 69.0243 8.616C69.0243 8.184 69.2043 7.839 69.5643 7.581C69.9243 7.317 70.4073 7.185 71.0133 7.185C71.3313 7.185 71.6493 7.224 71.9673 7.302C72.2853 7.38 72.5463 7.485 72.7503 7.617L72.3813 8.301C71.9913 8.049 71.5323 7.923 71.0043 7.923C70.6383 7.923 70.3593 7.983 70.1673 8.103C69.9753 8.223 69.8793 8.382 69.8793 8.58C69.8793 8.736 69.9333 8.859 70.0413 8.949C70.1493 9.039 70.2813 9.105 70.4373 9.147C70.5993 9.189 70.8243 9.237 71.1123 9.291C71.4963 9.357 71.8053 9.429 72.0393 9.507C72.2793 9.579 72.4833 9.705 72.6513 9.885C72.8193 10.065 72.9033 10.317 72.9033 10.641C72.9033 11.073 72.7173 11.418 72.3453 11.676C71.9793 11.928 71.4783 12.054 70.8423 12.054ZM76.6651 11.721C76.5391 11.829 76.3831 11.913 76.1971 11.973C76.0111 12.027 75.8191 12.054 75.6211 12.054C75.1411 12.054 74.7691 11.925 74.5051 11.667C74.2411 11.409 74.1091 11.04 74.1091 10.56V7.941H73.2991V7.23H74.1091V6.186H74.9731V7.23H76.3411V7.941H74.9731V10.524C74.9731 10.782 75.0361 10.98 75.1621 11.118C75.2941 11.256 75.4801 11.325 75.7201 11.325C75.9841 11.325 76.2091 11.25 76.3951 11.1L76.6651 11.721ZM79.4466 7.185C80.1066 7.185 80.6106 7.347 80.9586 7.671C81.3126 7.995 81.4896 8.478 81.4896 9.12V12H80.6706V11.37C80.5266 11.592 80.3196 11.763 80.0496 11.883C79.7856 11.997 79.4706 12.054 79.1046 12.054C78.5706 12.054 78.1416 11.925 77.8176 11.667C77.4996 11.409 77.3406 11.07 77.3406 10.65C77.3406 10.23 77.4936 9.894 77.7996 9.642C78.1056 9.384 78.5916 9.255 79.2576 9.255H80.6256V9.084C80.6256 8.712 80.5176 8.427 80.3016 8.229C80.0856 8.031 79.7676 7.932 79.3476 7.932C79.0656 7.932 78.7896 7.98 78.5196 8.076C78.2496 8.166 78.0216 8.289 77.8356 8.445L77.4756 7.797C77.7216 7.599 78.0156 7.449 78.3576 7.347C78.6996 7.239 79.0626 7.185 79.4466 7.185ZM79.2486 11.388C79.5786 11.388 79.8636 11.316 80.1036 11.172C80.3436 11.022 80.5176 10.812 80.6256 10.542V9.876H79.2936C78.5616 9.876 78.1956 10.122 78.1956 10.614C78.1956 10.854 78.2886 11.043 78.4746 11.181C78.6606 11.319 78.9186 11.388 79.2486 11.388ZM80.0586 5.367H81.1566L79.6446 6.537H78.8346L80.0586 5.367ZM87.6779 7.23V11.352C87.6779 12.186 87.4709 12.801 87.0569 13.197C86.6429 13.599 86.0249 13.8 85.2029 13.8C84.7529 13.8 84.3239 13.737 83.9159 13.611C83.5079 13.491 83.1779 13.317 82.9259 13.089L83.3399 12.423C83.5619 12.615 83.8349 12.765 84.1589 12.873C84.4889 12.987 84.8279 13.044 85.1759 13.044C85.7339 13.044 86.1449 12.912 86.4089 12.648C86.6789 12.384 86.8139 11.982 86.8139 11.442V11.064C86.6099 11.31 86.3579 11.496 86.0579 11.622C85.7639 11.742 85.4429 11.802 85.0949 11.802C84.6389 11.802 84.2249 11.706 83.8529 11.514C83.4869 11.316 83.1989 11.043 82.9889 10.695C82.7789 10.341 82.6739 9.939 82.6739 9.489C82.6739 9.039 82.7789 8.64 82.9889 8.292C83.1989 7.938 83.4869 7.665 83.8529 7.473C84.2249 7.281 84.6389 7.185 85.0949 7.185C85.4549 7.185 85.7879 7.251 86.0939 7.383C86.4059 7.515 86.6609 7.71 86.8589 7.968V7.23H87.6779ZM85.1939 11.046C85.5059 11.046 85.7849 10.98 86.0309 10.848C86.2829 10.716 86.4779 10.533 86.6159 10.299C86.7599 10.059 86.8319 9.789 86.8319 9.489C86.8319 9.027 86.6789 8.655 86.3729 8.373C86.0669 8.085 85.6739 7.941 85.1939 7.941C84.7079 7.941 84.3119 8.085 84.0059 8.373C83.6999 8.655 83.5469 9.027 83.5469 9.489C83.5469 9.789 83.6159 10.059 83.7539 10.299C83.8979 10.533 84.0929 10.716 84.3389 10.848C84.5909 10.98 84.8759 11.046 85.1939 11.046ZM89.3288 7.23H90.1928V12H89.3288V7.23ZM89.7608 6.312C89.5928 6.312 89.4518 6.258 89.3378 6.15C89.2298 6.042 89.1758 5.91 89.1758 5.754C89.1758 5.598 89.2298 5.466 89.3378 5.358C89.4518 5.244 89.5928 5.187 89.7608 5.187C89.9288 5.187 90.0668 5.241 90.1748 5.349C90.2888 5.451 90.3458 5.58 90.3458 5.736C90.3458 5.898 90.2888 6.036 90.1748 6.15C90.0668 6.258 89.9288 6.312 89.7608 6.312ZM93.8854 12.054C93.4114 12.054 92.9854 11.949 92.6074 11.739C92.2294 11.529 91.9324 11.241 91.7164 10.875C91.5064 10.503 91.4014 10.083 91.4014 9.615C91.4014 9.147 91.5064 8.73 91.7164 8.364C91.9324 7.992 92.2294 7.704 92.6074 7.5C92.9854 7.29 93.4114 7.185 93.8854 7.185C94.3594 7.185 94.7824 7.29 95.1544 7.5C95.5324 7.704 95.8264 7.992 96.0364 8.364C96.2524 8.73 96.3604 9.147 96.3604 9.615C96.3604 10.083 96.2524 10.503 96.0364 10.875C95.8264 11.241 95.5324 11.529 95.1544 11.739C94.7824 11.949 94.3594 12.054 93.8854 12.054ZM93.8854 11.298C94.1914 11.298 94.4644 11.229 94.7044 11.091C94.9504 10.947 95.1424 10.749 95.2804 10.497C95.4184 10.239 95.4874 9.945 95.4874 9.615C95.4874 9.285 95.4184 8.994 95.2804 8.742C95.1424 8.484 94.9504 8.286 94.7044 8.148C94.4644 8.01 94.1914 7.941 93.8854 7.941C93.5794 7.941 93.3034 8.01 93.0574 8.148C92.8174 8.286 92.6254 8.484 92.4814 8.742C92.3434 8.994 92.2744 9.285 92.2744 9.615C92.2744 9.945 92.3434 10.239 92.4814 10.497C92.6254 10.749 92.8174 10.947 93.0574 11.091C93.3034 11.229 93.5794 11.298 93.8854 11.298ZM102.501 7.185C102.963 7.185 103.377 7.287 103.743 7.491C104.109 7.695 104.394 7.98 104.598 8.346C104.808 8.712 104.913 9.135 104.913 9.615C104.913 10.095 104.808 10.521 104.598 10.893C104.394 11.259 104.109 11.544 103.743 11.748C103.377 11.952 102.963 12.054 102.501 12.054C102.159 12.054 101.844 11.988 101.556 11.856C101.274 11.724 101.034 11.532 100.836 11.28V13.746H99.9723V7.23H100.8V7.986C100.992 7.722 101.235 7.524 101.529 7.392C101.823 7.254 102.147 7.185 102.501 7.185ZM102.429 11.298C102.735 11.298 103.008 11.229 103.248 11.091C103.494 10.947 103.686 10.749 103.824 10.497C103.968 10.239 104.04 9.945 104.04 9.615C104.04 9.285 103.968 8.994 103.824 8.742C103.686 8.484 103.494 8.286 103.248 8.148C103.008 8.01 102.735 7.941 102.429 7.941C102.129 7.941 101.856 8.013 101.61 8.157C101.37 8.295 101.178 8.49 101.034 8.742C100.896 8.994 100.827 9.285 100.827 9.615C100.827 9.945 100.896 10.239 101.034 10.497C101.172 10.749 101.364 10.947 101.61 11.091C101.856 11.229 102.129 11.298 102.429 11.298ZM106.935 8.031C107.085 7.755 107.307 7.545 107.601 7.401C107.895 7.257 108.252 7.185 108.672 7.185V8.022C108.624 8.016 108.558 8.013 108.474 8.013C108.006 8.013 107.637 8.154 107.367 8.436C107.103 8.712 106.971 9.108 106.971 9.624V12H106.107V7.23H106.935V8.031ZM111.736 12.054C111.262 12.054 110.836 11.949 110.458 11.739C110.08 11.529 109.783 11.241 109.567 10.875C109.357 10.503 109.252 10.083 109.252 9.615C109.252 9.147 109.357 8.73 109.567 8.364C109.783 7.992 110.08 7.704 110.458 7.5C110.836 7.29 111.262 7.185 111.736 7.185C112.21 7.185 112.633 7.29 113.005 7.5C113.383 7.704 113.677 7.992 113.887 8.364C114.103 8.73 114.211 9.147 114.211 9.615C114.211 10.083 114.103 10.503 113.887 10.875C113.677 11.241 113.383 11.529 113.005 11.739C112.633 11.949 112.21 12.054 111.736 12.054ZM111.736 11.298C112.042 11.298 112.315 11.229 112.555 11.091C112.801 10.947 112.993 10.749 113.131 10.497C113.269 10.239 113.338 9.945 113.338 9.615C113.338 9.285 113.269 8.994 113.131 8.742C112.993 8.484 112.801 8.286 112.555 8.148C112.315 8.01 112.042 7.941 111.736 7.941C111.43 7.941 111.154 8.01 110.908 8.148C110.668 8.286 110.476 8.484 110.332 8.742C110.194 8.994 110.125 9.285 110.125 9.615C110.125 9.945 110.194 10.239 110.332 10.497C110.476 10.749 110.668 10.947 110.908 11.091C111.154 11.229 111.43 11.298 111.736 11.298ZM117.485 12.054C116.999 12.054 116.564 11.949 116.18 11.739C115.802 11.529 115.505 11.241 115.289 10.875C115.073 10.503 114.965 10.083 114.965 9.615C114.965 9.147 115.073 8.73 115.289 8.364C115.505 7.992 115.802 7.704 116.18 7.5C116.564 7.29 116.999 7.185 117.485 7.185C117.917 7.185 118.301 7.272 118.637 7.446C118.979 7.62 119.243 7.872 119.429 8.202L118.772 8.625C118.622 8.397 118.436 8.226 118.214 8.112C117.992 7.998 117.746 7.941 117.476 7.941C117.164 7.941 116.882 8.01 116.63 8.148C116.384 8.286 116.189 8.484 116.045 8.742C115.907 8.994 115.838 9.285 115.838 9.615C115.838 9.951 115.907 10.248 116.045 10.506C116.189 10.758 116.384 10.953 116.63 11.091C116.882 11.229 117.164 11.298 117.476 11.298C117.746 11.298 117.992 11.241 118.214 11.127C118.436 11.013 118.622 10.842 118.772 10.614L119.429 11.028C119.243 11.358 118.979 11.613 118.637 11.793C118.301 11.967 117.917 12.054 117.485 12.054ZM124.994 7.23V12H124.175V11.28C124.001 11.526 123.77 11.718 123.482 11.856C123.2 11.988 122.891 12.054 122.555 12.054C121.919 12.054 121.418 11.88 121.052 11.532C120.686 11.178 120.503 10.659 120.503 9.975V7.23H121.367V9.876C121.367 10.338 121.478 10.689 121.7 10.929C121.922 11.163 122.24 11.28 122.654 11.28C123.11 11.28 123.47 11.142 123.734 10.866C123.998 10.59 124.13 10.2 124.13 9.696V7.23H124.994ZM127.466 8.031C127.616 7.755 127.838 7.545 128.132 7.401C128.426 7.257 128.783 7.185 129.203 7.185V8.022C129.155 8.016 129.089 8.013 129.005 8.013C128.537 8.013 128.168 8.154 127.898 8.436C127.634 8.712 127.502 9.108 127.502 9.624V12H126.638V7.23H127.466V8.031ZM131.996 7.185C132.656 7.185 133.16 7.347 133.508 7.671C133.862 7.995 134.039 8.478 134.039 9.12V12H133.22V11.37C133.076 11.592 132.869 11.763 132.599 11.883C132.335 11.997 132.02 12.054 131.654 12.054C131.12 12.054 130.691 11.925 130.367 11.667C130.049 11.409 129.89 11.07 129.89 10.65C129.89 10.23 130.043 9.894 130.349 9.642C130.655 9.384 131.141 9.255 131.807 9.255H133.175V9.084C133.175 8.712 133.067 8.427 132.851 8.229C132.635 8.031 132.317 7.932 131.897 7.932C131.615 7.932 131.339 7.98 131.069 8.076C130.799 8.166 130.571 8.289 130.385 8.445L130.025 7.797C130.271 7.599 130.565 7.449 130.907 7.347C131.249 7.239 131.612 7.185 131.996 7.185ZM131.798 11.388C132.128 11.388 132.413 11.316 132.653 11.172C132.893 11.022 133.067 10.812 133.175 10.542V9.876H131.843C131.111 9.876 130.745 10.122 130.745 10.614C130.745 10.854 130.838 11.043 131.024 11.181C131.21 11.319 131.468 11.388 131.798 11.388ZM137.006 12.054C136.616 12.054 136.241 12.003 135.881 11.901C135.521 11.793 135.239 11.658 135.035 11.496L135.395 10.812C135.605 10.962 135.86 11.082 136.16 11.172C136.46 11.262 136.763 11.307 137.069 11.307C137.825 11.307 138.203 11.091 138.203 10.659C138.203 10.515 138.152 10.401 138.05 10.317C137.948 10.233 137.819 10.173 137.663 10.137C137.513 10.095 137.297 10.05 137.015 10.002C136.631 9.942 136.316 9.873 136.07 9.795C135.83 9.717 135.623 9.585 135.449 9.399C135.275 9.213 135.188 8.952 135.188 8.616C135.188 8.184 135.368 7.839 135.728 7.581C136.088 7.317 136.571 7.185 137.177 7.185C137.495 7.185 137.813 7.224 138.131 7.302C138.449 7.38 138.71 7.485 138.914 7.617L138.545 8.301C138.155 8.049 137.696 7.923 137.168 7.923C136.802 7.923 136.523 7.983 136.331 8.103C136.139 8.223 136.043 8.382 136.043 8.58C136.043 8.736 136.097 8.859 136.205 8.949C136.313 9.039 136.445 9.105 136.601 9.147C136.763 9.189 136.988 9.237 137.276 9.291C137.66 9.357 137.969 9.429 138.203 9.507C138.443 9.579 138.647 9.705 138.815 9.885C138.983 10.065 139.067 10.317 139.067 10.641C139.067 11.073 138.881 11.418 138.509 11.676C138.143 11.928 137.642 12.054 137.006 12.054ZM141.231 10.011C141.231 9.771 141.27 9.561 141.348 9.381C141.432 9.195 141.531 9.039 141.645 8.913C141.765 8.787 141.921 8.637 142.113 8.463C142.353 8.253 142.53 8.073 142.644 7.923C142.758 7.767 142.815 7.581 142.815 7.365C142.815 7.071 142.701 6.837 142.473 6.663C142.245 6.483 141.93 6.393 141.528 6.393C140.826 6.393 140.289 6.63 139.917 7.104L139.26 6.636C139.512 6.312 139.833 6.063 140.223 5.889C140.619 5.715 141.075 5.628 141.591 5.628C142.245 5.628 142.764 5.772 143.148 6.06C143.532 6.342 143.724 6.732 143.724 7.23C143.724 7.476 143.682 7.695 143.598 7.887C143.52 8.073 143.424 8.229 143.31 8.355C143.196 8.481 143.043 8.631 142.851 8.805C142.605 9.027 142.422 9.222 142.302 9.39C142.188 9.558 142.131 9.765 142.131 10.011H141.231ZM141.69 12.054C141.522 12.054 141.381 12 141.267 11.892C141.159 11.778 141.105 11.64 141.105 11.478C141.105 11.316 141.159 11.181 141.267 11.073C141.381 10.959 141.522 10.902 141.69 10.902C141.858 10.902 141.996 10.959 142.104 11.073C142.212 11.181 142.266 11.316 142.266 11.478C142.266 11.64 142.209 11.778 142.095 11.892C141.987 12 141.852 12.054 141.69 12.054Z" fill="#FCFBE9"/>
</svg>
